<svg width="300" height="100" viewBox="0 0 300 100" fill="none" xmlns="http://www.w3.org/2000/svg">
<path d="M97.343 34.8293V70.754H90.0125V34.8293H97.343Z" fill="black"/>
<path d="M127.228 46.5431V70.8293C127.228 78.3607 121.363 83 114.173 83C107.239 83 102.078 78.6971 101.571 72.6268L108.876 72.667C109.177 75.2477 111.442 76.3624 114.429 76.3624C117.261 76.3624 119.892 74.8561 119.892 70.9046V67.8218C117.814 69.1174 115.406 69.7852 112.958 69.7448C106.275 69.7448 100.908 64.3272 100.908 58.1063C100.908 50.8661 106.27 46.0109 112.958 46.0109C115.406 45.9705 117.814 46.6383 119.892 47.9339V46.5983L127.228 46.5431ZM119.897 60.8377V54.918C119.284 53.9965 118.446 53.2473 117.461 52.7419C116.477 52.2365 115.38 51.9917 114.274 52.031C110.674 52.031 108.178 54.436 108.178 58.0912C108.178 60.7875 110.689 63.7247 114.274 63.7247C115.38 63.7639 116.477 63.5192 117.461 63.0138C118.446 62.5084 119.284 61.7592 119.897 60.8377V60.8377Z" fill="black"/>
<path d="M156.434 58.3524C156.434 65.8335 150.911 71.1607 143.475 71.1607C136.039 71.1607 130.461 65.8335 130.461 58.3524C130.461 50.8712 135.984 45.4938 143.475 45.4938C150.967 45.4938 156.434 50.9264 156.434 58.3524ZM149.36 58.3524C149.36 54.8377 147.045 51.9808 143.475 51.9808C139.905 51.9808 137.536 54.8277 137.536 58.3524C137.536 61.9724 139.855 64.6737 143.475 64.6737C147.095 64.6737 149.36 61.9724 149.36 58.3524V58.3524Z" fill="black"/>
<path d="M201.909 46.5983V70.6987L194.714 70.7339V69.3883C192.644 70.7025 190.237 71.3879 187.785 71.3615C181.102 71.3615 175.735 65.6929 175.735 58.7138C175.735 51.7347 181.097 46.0109 187.785 46.0109C190.237 45.9844 192.644 46.6699 194.714 47.9841V46.5983H201.909ZM194.714 62.3841V54.9883C193.207 52.8293 191.089 52.2418 188.98 52.2418C185.305 52.2418 182.759 55.1841 182.759 58.7088C182.759 62.2335 185.305 65.1305 188.98 65.1305C191.089 65.1305 193.197 64.5431 194.714 62.3841Z" fill="black"/>
<path d="M231.442 57.6443V70.7489H224.377V58.4879C224.377 54.5414 222.404 52.4628 218.915 52.4628C217.092 52.4628 215.069 53.5222 213.346 55.5506V70.754H206.121V46.5983H213.346V48.4209C215.318 46.8177 217.79 45.9576 220.331 45.9908C226.782 46.0109 231.442 50.5649 231.442 57.6443Z" fill="black"/>
<path d="M86.6737 70.7389H79.1975L74.3423 52.6787L63.9088 70.7389H55.564L71.6912 42.7874L69.1004 33.082L47.3498 70.7439H39L66.5649 23H73.8703L77.0737 34.8644H84.6101L79.4636 43.8167L86.6737 70.7389Z" fill="black"/>
<path d="M260.603 34.8293V70.754H253.273V69.3884C251.208 70.6978 248.809 71.383 246.364 71.3616C239.686 71.3616 234.314 65.693 234.314 58.6586C234.314 51.6243 239.681 46.0109 246.364 46.0109C248.817 45.9847 251.226 46.6701 253.298 47.9842V34.8293H260.603ZM253.273 62.4143V54.9582C251.741 52.7842 249.617 52.1917 247.494 52.1917C243.788 52.1917 241.222 55.154 241.222 58.6637C241.222 62.1733 243.788 65.1909 247.494 65.1909C249.617 65.1758 251.741 64.5884 253.273 62.4143Z" fill="black"/>
<path d="M174.434 52.6987C172.833 52.8945 169.097 53.0753 166.903 56.0929V70.754H159.673V46.6535H166.903V48.461C168.55 47.0401 171.035 46.2217 174.434 46.5531V52.6987Z" fill="black"/>
</svg>
