<svg width="300" height="100" viewBox="0 0 300 100" fill="none" xmlns="http://www.w3.org/2000/svg">
<g clip-path="url(#clip0_3_135)">
<g clip-path="url(#clip1_3_135)">
<path d="M58.2421 60.206C58.2596 62.3805 57.7565 64.282 56.7328 65.9103C55.7003 67.5449 54.2182 68.847 52.4642 69.6606C50.6434 70.5349 48.5791 70.972 46.2715 70.972C43.4094 70.972 40.9804 70.372 38.9844 69.1721C37.0148 68.0022 35.4492 66.2588 34.497 64.1752C33.499 62.0426 33 59.5803 33 56.7883V56.3524C33 53.5592 33.499 51.0922 34.497 48.9515C35.4445 46.8655 37.0057 45.118 38.9722 43.9423C40.9565 42.7424 43.3721 42.143 46.2189 42.1442C48.5966 42.1442 50.6976 42.5848 52.522 43.4661C54.2977 44.3084 55.7754 45.6707 56.7591 47.3722C57.7641 49.0927 58.2584 51.1692 58.2421 53.6018H49.4983C49.5333 52.4042 49.2555 51.4365 48.6649 50.6989C48.0743 49.9612 47.1813 49.5929 45.9861 49.5941C44.9449 49.5941 44.1594 49.8771 43.6294 50.4432C43.0995 51.0093 42.7493 51.768 42.5789 52.7193C42.3845 53.9214 42.2972 55.1384 42.318 56.3559V56.7918C42.2963 58.0227 42.3836 59.2531 42.5789 60.4686C42.7528 61.4106 43.1083 62.1553 43.6452 62.7027C44.1821 63.2501 44.9799 63.5244 46.0386 63.5256C47.2058 63.5256 48.0813 63.2431 48.6649 62.6782C49.2485 62.1132 49.5263 61.2909 49.4983 60.2112L58.2421 60.206ZM76.9622 42.0882C79.9141 42.0882 82.227 42.9823 83.9008 44.7705C85.5746 46.5587 86.4121 49.4184 86.4133 53.3496V70.2366H77.0917V53.3041C77.0917 51.8229 76.7813 50.8097 76.1603 50.2646C75.5393 49.7195 74.5985 49.447 73.3379 49.447C71.768 49.447 70.6369 49.8555 69.9448 50.6726V70.2436H60.6757V31H69.943V45.5128C70.7841 44.455 71.8444 43.5919 73.0508 42.9828C74.2659 42.3807 75.6061 42.0741 76.9622 42.0882V42.0882ZM115.306 59.6405H98.207C98.525 60.8083 99.2496 61.8241 100.25 62.5049C101.248 63.183 102.484 63.5215 103.959 63.5204C105.17 63.5276 106.373 63.3189 107.511 62.9041C108.621 62.4982 109.604 61.8067 110.361 60.8993L114.499 66.2692C113.781 67.1758 112.915 67.9533 111.935 68.5681C110.746 69.328 109.454 69.9124 108.098 70.3032C106.552 70.7586 104.947 70.9839 103.335 70.972C100.316 70.972 97.6894 70.3551 95.4565 69.1213C93.2235 67.8876 91.5188 66.2388 90.3422 64.1752C89.1778 62.1288 88.5739 59.8115 88.5914 57.4571V56.5064C88.5914 53.8218 89.0944 51.3934 90.1006 49.2211C91.0858 47.0785 92.6902 45.2801 94.7071 44.0579C96.7719 42.7821 99.3223 42.1442 102.358 42.1442C104.995 42.1442 107.289 42.6834 109.241 43.762C111.176 44.8308 112.742 46.4614 113.732 48.4385C114.782 50.4765 115.308 52.9003 115.308 55.7098L115.306 59.6405ZM106.147 53.0012C106.217 50.6084 104.891 49.4114 102.169 49.4102C100.878 49.4102 99.91 49.8007 99.2646 50.5815C98.6191 51.3624 98.1919 52.4258 97.9829 53.7716H106.147V53.0012ZM127.045 59.8453C124.072 59.2115 121.68 58.1797 119.867 56.7498C118.054 55.3199 117.15 53.4401 117.155 51.1103C117.149 49.5071 117.638 47.9413 118.555 46.6264C119.489 45.2665 120.841 44.1793 122.61 43.3645C124.38 42.5498 126.481 42.1413 128.914 42.1389C131.452 42.1389 133.674 42.5154 135.577 43.2682C137.481 44.0211 138.948 45.0891 139.977 46.4723C141.008 47.8643 141.549 49.5586 141.516 51.2906H132.156C132.156 50.2273 131.917 49.4686 131.438 49.0145C130.96 48.5605 130.112 48.3334 128.896 48.3334C128.161 48.3151 127.438 48.5216 126.823 48.9252C126.547 49.0997 126.321 49.343 126.167 49.6313C126.014 49.9195 125.938 50.2428 125.948 50.5693C125.948 51.9233 127.434 52.8308 130.407 53.2919C132.31 53.5612 134.177 54.0398 135.975 54.7188C137.496 55.2962 138.844 56.2562 139.886 57.5062C140.903 58.7388 141.411 60.3402 141.411 62.3105C141.424 63.921 140.881 65.4867 139.874 66.7437C138.848 68.0533 137.389 69.0851 135.497 69.8392C133.605 70.5932 131.406 70.9702 128.9 70.9702C126.292 70.9702 124.036 70.5033 122.132 69.5696C120.229 68.6358 118.777 67.4364 117.778 65.9715C116.779 64.5078 116.279 63.0138 116.279 61.4894H124.962C124.997 62.5679 125.38 63.3815 126.11 63.9301C126.841 64.4787 127.858 64.7524 129.16 64.7512C130.221 64.7512 131.034 64.5499 131.599 64.1472C131.867 63.969 132.085 63.7259 132.234 63.4406C132.382 63.1552 132.456 62.8369 132.448 62.5154C132.452 62.3152 132.41 62.1169 132.326 61.9351C132.243 61.7533 132.119 61.5926 131.965 61.4649C131.644 61.1824 131.106 60.9168 130.349 60.6682C129.263 60.335 128.161 60.0603 127.045 59.8453V59.8453ZM153.236 59.8453C150.263 59.2115 147.871 58.1797 146.058 56.7498C144.245 55.3199 143.341 53.4401 143.346 51.1103C143.34 49.5071 143.829 47.9413 144.746 46.6264C145.68 45.2665 147.032 44.1793 148.801 43.3645C150.571 42.5498 152.672 42.1413 155.105 42.1389C157.643 42.1389 159.865 42.5154 161.768 43.2682C163.672 44.0211 165.139 45.0891 166.17 46.4723C167.201 47.8643 167.742 49.5586 167.709 51.2906H158.347C158.347 50.2273 158.108 49.4686 157.629 49.0145C157.151 48.5605 156.303 48.3334 155.087 48.3334C154.352 48.316 153.629 48.5224 153.014 48.9252C152.738 49.0997 152.512 49.343 152.358 49.6313C152.205 49.9195 152.129 50.2428 152.139 50.5693C152.139 51.9233 153.625 52.8308 156.598 53.2919C158.501 53.5612 160.368 54.0398 162.166 54.7188C163.687 55.2962 165.035 56.2562 166.077 57.5062C167.094 58.7388 167.602 60.3402 167.602 62.3105C167.614 63.9215 167.071 65.4875 166.065 66.7454C165.039 68.0551 163.58 69.0869 161.688 69.8409C159.796 70.595 157.595 70.972 155.087 70.972C152.479 70.972 150.224 70.5051 148.32 69.5713C146.416 68.6375 144.965 67.4382 143.966 65.9733C142.966 64.5096 142.467 63.0155 142.467 61.4911H151.149C151.184 62.5696 151.567 63.3832 152.298 63.9318C153.029 64.4804 154.045 64.7541 155.348 64.753C156.409 64.753 157.222 64.5516 157.787 64.1489C158.054 63.9707 158.272 63.7278 158.42 63.4428C158.568 63.1578 158.642 62.84 158.634 62.5189C158.638 62.3187 158.596 62.1204 158.512 61.9386C158.429 61.7568 158.305 61.5961 158.151 61.4684C157.831 61.1859 157.293 60.9203 156.535 60.6717C155.451 60.3386 154.35 60.0627 153.236 59.8453V59.8453ZM193.664 63.1597C193.664 65.0961 193.759 66.5307 193.951 67.4633C194.129 68.3564 194.438 69.2184 194.868 70.0213V70.4572H185.51C185.156 69.6936 184.892 68.8916 184.722 68.0673C183.994 68.9773 183.072 69.7126 182.022 70.2191C180.972 70.7234 179.626 70.9761 177.985 70.9772C176.335 70.9914 174.704 70.6323 173.214 69.9267C171.797 69.2676 170.583 68.2395 169.7 66.9503C168.825 65.6685 168.367 64.1476 168.39 62.5959C168.39 59.6778 169.487 57.4297 171.68 55.8516C173.873 54.2735 177.242 53.481 181.786 53.474H184.225V52.1853C184.225 51.0718 183.984 50.2244 183.503 49.6431C183.022 49.0618 182.249 48.77 181.183 48.7677C180.257 48.7677 179.57 48.9772 179.125 49.3962C178.679 49.8153 178.456 50.5051 178.457 51.4657H169.071C169.046 49.7197 169.588 48.0127 170.617 46.6019C171.649 45.1895 173.117 44.0929 175.022 43.312C176.927 42.5311 179.145 42.1418 181.675 42.1442C183.983 42.1442 186.042 42.5253 187.851 43.2875C189.576 43.9824 191.057 45.1706 192.111 46.7034C193.142 48.2208 193.658 50.0668 193.658 52.2414L193.664 63.1597ZM180.233 64.1874C181.037 64.2098 181.835 64.0387 182.56 63.6884C183.144 63.4101 183.637 62.9702 183.98 62.4208V58.3746H181.441C180.132 58.3746 179.199 58.7458 178.64 59.4881C178.07 60.2528 177.773 61.1859 177.796 62.1389C177.787 62.4243 177.846 62.7077 177.968 62.966C178.089 63.2243 178.27 63.4502 178.496 63.6254C178.992 64.0093 179.606 64.208 180.233 64.1874V64.1874ZM212.256 42.1494C214.732 42.1494 216.792 42.7488 218.438 43.9476C220.084 45.1463 221.304 46.8032 222.097 48.9182C222.89 51.0333 223.287 53.4693 223.288 56.2263V56.7656C223.288 61.1847 222.377 64.6567 220.555 67.1814C218.733 69.7061 215.984 70.9697 212.308 70.972C209.521 70.972 207.273 69.8415 205.564 67.5806L205.172 70.4572H196.808V31H206.159V44.8212C207.784 43.0389 209.816 42.1483 212.256 42.1494V42.1494ZM213.884 56.0897C213.884 53.9654 213.624 52.3213 213.105 51.1576C212.586 49.9938 211.566 49.4102 210.046 49.4067C208.323 49.4067 207.128 50.0061 206.459 51.2048V61.71C206.768 62.2846 207.251 62.7471 207.839 63.0319C208.422 63.3155 209.174 63.4567 210.095 63.4556C211.2 63.4556 212.023 63.1906 212.566 62.6607C213.109 62.1308 213.464 61.3942 213.632 60.4511C213.823 59.1846 213.907 57.9043 213.884 56.6237V56.0897ZM266.039 59.6405H248.94C249.257 60.808 249.981 61.8238 250.981 62.5049C251.979 63.183 253.215 63.5215 254.69 63.5204C255.901 63.5276 257.104 63.3189 258.242 62.9041C259.352 62.4982 260.335 61.8067 261.092 60.8993L265.23 66.2692C264.512 67.1758 263.646 67.9533 262.666 68.5681C261.477 69.328 260.185 69.9124 258.829 70.3032C257.283 70.7587 255.678 70.9841 254.066 70.972C251.047 70.972 248.42 70.3551 246.187 69.1213C243.955 67.8876 242.25 66.2388 241.073 64.1752C239.909 62.1288 239.305 59.8115 239.322 57.4571V56.5064C239.322 53.8218 239.825 51.3934 240.832 49.2211C241.817 47.0785 243.421 45.2801 245.438 44.0579C247.499 42.7821 250.047 42.1442 253.082 42.1442C255.719 42.1442 258.013 42.6834 259.965 43.762C261.903 44.8295 263.472 46.4603 264.463 48.4385C265.513 50.4765 266.039 52.9003 266.039 55.7098V59.6405ZM256.88 53.0012C256.95 50.6084 255.624 49.4114 252.902 49.4102C251.611 49.4102 250.643 49.8007 249.997 50.5815C249.352 51.3624 248.925 52.4258 248.716 53.7716H256.88V53.0012ZM222.281 68.969H241.541C241.81 68.969 242.068 69.076 242.259 69.2664C242.449 69.4569 242.556 69.7152 242.556 69.9845C242.556 70.2538 242.449 70.5121 242.259 70.7026C242.068 70.893 241.81 71 241.541 71H222.281C222.012 71 221.754 70.893 221.563 70.7026C221.373 70.5121 221.266 70.2538 221.266 69.9845C221.266 69.7152 221.373 69.4569 221.563 69.2664C221.754 69.076 222.012 68.969 222.281 68.969V68.969Z" fill="black"/>
<path d="M241.702 67.6577C241.636 67.7647 241.544 67.8531 241.434 67.9144C241.324 67.9758 241.201 68.0079 241.075 68.0078H222.728C222.567 68.0072 222.41 67.9539 222.283 67.8561C222.155 67.7583 222.063 67.6213 222.02 67.4661C221.977 67.3109 221.986 67.146 222.046 66.9966C222.106 66.8472 222.213 66.7215 222.351 66.6387L225.652 64.6655H225.617L227.203 41.0412H226.447C226.003 41.0412 225.577 40.8648 225.263 40.5509C224.949 40.237 224.773 39.8113 224.773 39.3674V39.3674V33.0503H231.064V38.0945H232.464V33.0503H238.757V39.3691C238.757 39.5889 238.714 39.8066 238.629 40.0097C238.545 40.2127 238.422 40.3973 238.267 40.5527C238.111 40.7081 237.927 40.8314 237.724 40.9155C237.52 40.9996 237.303 41.0429 237.083 41.0429H236.011L238.113 64.6094L241.439 66.6439C241.608 66.7429 241.731 66.9049 241.78 67.0943C241.83 67.2838 241.802 67.4851 241.704 67.6542L241.702 67.6577Z" fill="black"/>
</g>
</g>
<defs>
<clipPath id="clip0_3_135">
<rect width="233" height="100" fill="white" transform="translate(33)"/>
</clipPath>
<clipPath id="clip1_3_135">
<rect width="233.039" height="40" fill="white" transform="translate(33 31)"/>
</clipPath>
</defs>
</svg>
