<svg width="300" height="100" viewBox="0 0 300 100" fill="none" xmlns="http://www.w3.org/2000/svg">
<mask id="mask0_3_135" style="mask-type:alpha" maskUnits="userSpaceOnUse" x="29" y="34" width="242" height="46">
<path d="M29 34H270.5V80H29V34Z" fill="white"/>
</mask>
<g mask="url(#mask0_3_135)">
<path fill-rule="evenodd" clip-rule="evenodd" d="M177.816 46.9845H176.986V43.8795H171.161V70.6223H176.984V56.6404C176.984 51.8647 179.19 49.0964 183.533 49.0964H187.219V43.2146H185.08C181.059 43.2146 179.345 44.7285 177.814 46.9845H177.816ZM216.239 70.6223H222.06V34H216.241V70.6223H216.239ZM204.231 54.7544L200.344 54.3655C197.291 54.0874 195.681 53.2573 195.681 51.4842C195.681 49.3724 197.73 48.1534 200.672 48.1534C203.727 48.1534 205.665 49.5982 205.83 51.6494H211.436C211.212 46.4325 207.162 43.2146 200.724 43.2146C194.236 43.2146 189.852 46.6563 189.852 51.6995C189.852 55.9148 192.515 58.6393 198.562 59.2456L202.499 59.6345C204.887 59.8583 206.495 60.3517 206.495 62.6266C206.495 64.6778 205 66.1749 201.055 66.1749C197.429 66.1749 195.639 64.5315 195.016 62.3235H188.95C189.557 67.3688 193.795 71.2788 201.055 71.2788C207.879 71.2788 212.318 67.6699 212.318 62.3423C212.327 57.6356 209.222 55.2478 204.231 54.7544V54.7544ZM240.705 43.8795H233.602L225.115 55.0325V58.5264L233.825 70.6223H241.041L230.833 56.7533L240.705 43.8795V43.8795ZM264.073 43.8795L259.297 54.4763C258.128 57.0293 257.022 59.53 256.692 61.1923H255.862C255.533 59.53 254.364 57.0815 253.198 54.5285L248.422 43.8795H241.984L253.189 67.9041L247.642 80H253.854L270.5 43.8795H264.073V43.8795ZM53.4678 43.8795H46.365L37.8759 55.0325V58.5264L46.5887 70.6223H53.8024L43.5966 56.7533L53.4657 43.8795H53.4678ZM29 70.6223H34.8232V34H29V70.6223ZM68.5286 43.2146C62.1451 43.2146 57.3778 46.5434 56.8237 51.6494H63.0965C63.5376 49.7634 65.2585 48.3792 68.537 48.3792C72.7523 48.3792 74.1427 50.6018 74.1427 53.3179V62.4635C71.7549 65.1817 68.9886 66.4593 66.2119 66.4593C63.3306 66.4593 61.3317 65.0751 61.3317 62.5744C61.3317 60.1865 62.8895 58.6915 65.8815 58.6915H70.5443V54.4763H65.7185C59.0568 54.4763 55.3434 57.8092 55.3434 62.9131C55.3434 67.6887 58.9523 71.2872 64.8863 71.2872C68.2192 71.2872 71.159 69.9553 73.321 68.3453H74.1511V70.6223H79.9743V52.7555C79.9575 46.1545 75.4579 43.2146 68.5286 43.2146V43.2146ZM160.366 62.3255C159.448 64.4269 157.269 66.0097 154.17 66.0097C149.898 66.0097 146.739 63.233 146.739 57.2467C146.739 51.526 149.681 48.3687 154.231 48.3687C158.281 48.3687 160.616 50.8088 160.832 54.4679H150.348V58.6832H166.553V55.9065C166.553 48.1973 161.449 43.1937 154.179 43.1937C147.414 43.1937 140.916 47.7979 140.916 57.2363C140.916 66.6663 147.406 71.2788 154.179 71.2788C160.374 71.2788 164.786 67.465 166.153 62.3235H160.366V62.3255ZM99.5201 54.7565L95.6331 54.3655C92.5804 54.0874 90.9704 53.2573 90.9704 51.4842C90.9704 49.3724 93.0236 48.1534 95.9635 48.1534C99.0183 48.1534 100.954 49.5982 101.12 51.6494H106.725C106.502 46.4325 102.454 43.2146 96.0136 43.2146C89.5255 43.2146 85.1409 46.6563 85.1409 51.6995C85.1409 55.9148 87.8047 58.6393 93.8537 59.2456L97.7888 59.6345C100.177 59.8583 101.785 60.3517 101.785 62.6266C101.785 64.6778 100.29 66.1749 96.3524 66.1749C92.7267 66.1749 90.9369 64.5315 90.3138 62.3235H84.2502C84.8565 67.3688 89.0948 71.2788 96.3524 71.2788C103.179 71.2788 107.616 67.6699 107.616 62.3423C107.616 57.6356 104.511 55.2478 99.5201 54.7544V54.7565ZM137.803 57.1338C137.803 66.2857 132.214 70.6118 125.224 70.6118H120.95V65.119H124.885C129.098 65.119 131.91 62.8441 131.91 57.1317C131.91 51.4758 129.255 48.6447 124.757 48.6447C120.429 48.6447 117.335 51.3106 117.335 57.0209V79.9895H111.511V43.8795H117.335V46.9845H118.165C120.101 44.3814 122.974 43.2146 125.976 43.2146C132.429 43.2146 137.803 47.8669 137.803 57.1338V57.1338Z" fill="black"/>
</g>
</svg>
