<svg width="300" height="100" viewBox="0 0 300 100" fill="none" xmlns="http://www.w3.org/2000/svg">
<path fill-rule="evenodd" clip-rule="evenodd" d="M271.585 65.4173C268.104 65.4173 264.939 62.8565 264.939 57.7086C264.939 52.5543 268.104 49.9978 271.585 49.9978C275.059 49.9978 278.228 52.5543 278.228 57.7086C278.228 62.8565 275.059 65.4173 271.585 65.4173ZM271.585 71.826C281.359 71.826 285.933 64.8434 285.933 57.7086C285.933 50.5717 281.359 43.5847 271.585 43.5847C261.813 43.5847 257.239 50.5717 257.239 57.7086C257.239 64.8434 261.813 71.826 271.585 71.826" fill="white"/>
<path fill-rule="evenodd" clip-rule="evenodd" d="M296.565 47.1087C296.565 48.2782 296.148 49.2739 295.315 50.1087C294.927 50.5105 294.461 50.8285 293.946 51.0431C293.43 51.2577 292.876 51.3644 292.317 51.3565C291.757 51.363 291.202 51.2556 290.685 51.0407C290.167 50.8258 289.699 50.508 289.309 50.1065C288.911 49.7159 288.596 49.2486 288.383 48.7331C288.171 48.2175 288.065 47.6642 288.072 47.1065C288.072 45.9413 288.491 44.9413 289.311 44.1108C289.702 43.7111 290.17 43.3949 290.687 43.1811C291.204 42.9674 291.758 42.8607 292.317 42.8674C293.496 42.8674 294.491 43.2869 295.317 44.1108C296.148 44.9413 296.567 45.9413 296.567 47.1087H296.565ZM296 47.1087C296 46.0913 295.63 45.2304 294.917 44.5021C294.582 44.1522 294.178 43.8748 293.73 43.6871C293.283 43.4994 292.802 43.4054 292.317 43.4108C291.298 43.4108 290.441 43.7804 289.713 44.5021C289.367 44.8412 289.092 45.247 288.907 45.695C288.722 46.143 288.629 46.6239 288.635 47.1087C288.635 48.1174 289 48.9956 289.713 49.7152C290.441 50.4434 291.3 50.8087 292.317 50.8087C292.803 50.8154 293.284 50.7218 293.732 50.5336C294.179 50.3454 294.583 50.0668 294.917 49.7152C295.63 48.9978 296 48.1174 296 47.1065V47.1087ZM295.052 49.2587H293.961L292.33 47.5348H291.539V49.2587H290.726V44.7782H292.263C292.565 44.7782 292.822 44.7934 293.028 44.8304C293.229 44.8532 293.424 44.9122 293.604 45.0043C293.791 45.0985 293.949 45.2412 294.061 45.4174C294.164 45.5969 294.214 45.8019 294.204 46.0087C294.204 46.3239 294.115 46.5956 293.928 46.8043C293.723 47.0352 293.461 47.2077 293.167 47.3043L295.052 49.2587V49.2587ZM293.326 46.0587C293.331 45.9545 293.307 45.8509 293.259 45.7587C293.21 45.6568 293.129 45.5742 293.028 45.5239C292.926 45.4708 292.816 45.4348 292.702 45.4174C292.558 45.3997 292.413 45.3909 292.267 45.3913H291.539V46.9108H292.157C292.359 46.9108 292.541 46.8956 292.683 46.863C292.815 46.8405 292.941 46.7861 293.048 46.7043C293.141 46.6336 293.213 46.54 293.259 46.4326C293.31 46.3149 293.332 46.1867 293.324 46.0587H293.326Z" fill="white"/>
<path fill-rule="evenodd" clip-rule="evenodd" d="M76.813 50.3305H78.9543C82.1717 50.3305 82.6283 52.0566 82.6283 53.3957C82.6283 54.5413 82.2891 56.4935 78.9543 56.4935H76.813V50.3305ZM69.3065 71.2348H76.813V62.3913H80.6022C88.1783 62.3913 90.363 57.1044 90.363 53.3913C90.363 49.7174 88.2217 44.4348 80.6022 44.4348H69.3065V71.2326V71.2348Z" fill="white"/>
<path fill-rule="evenodd" clip-rule="evenodd" d="M93.8544 71.2348H101.357V60.5152H110.47V71.2348H117.972V44.4348H110.47V54.0848H101.357V44.4348H93.8544V71.2348Z" fill="white"/>
<path fill-rule="evenodd" clip-rule="evenodd" d="M136 65.5696C132.522 65.5696 129.346 63 129.346 57.8348C129.346 52.6674 132.522 50.1022 136.002 50.1022C139.487 50.1022 142.665 52.6674 142.665 57.8348C142.665 63 139.487 65.5696 136.002 65.5696H136ZM136.002 72C145.806 72 150.398 64.9935 150.398 57.8348C150.398 50.6739 145.804 43.6696 136.002 43.6696C126.202 43.6696 121.606 50.6761 121.606 57.8348C121.606 64.9935 126.202 72 136.002 72" fill="white"/>
<mask id="mask0_2_69" style="mask-type:alpha" maskUnits="userSpaceOnUse" x="151" y="43" width="21" height="29">
<path d="M151.887 43.6696H171.989V72H151.887V43.6696Z" fill="white"/>
</mask>
<g mask="url(#mask0_2_69)">
<path fill-rule="evenodd" clip-rule="evenodd" d="M170.8 46.3152C168.427 44.5989 165.574 43.6732 162.646 43.6696C156.372 43.6696 153.23 47.4239 153.23 51.75C153.23 57.0696 156.863 58.9456 159.622 59.7478C161.957 60.4369 164.75 60.6674 164.75 63.3087C164.75 64.9196 163.489 65.5696 162.111 65.5696C159.893 65.5696 157.552 64.0391 155.448 62.0065L151.887 67.713C155.754 70.85 158.474 72 161.92 72C168.196 72 171.989 68.513 171.989 63.1913C171.989 60.5935 171.53 56.8 166.128 54.9239C163.563 54.0065 160.465 54.0848 160.465 51.8652C160.465 50.9065 161 49.5696 163.257 49.5696C165.172 49.5696 166.857 50.7869 168.12 51.9391L170.8 46.3152Z" fill="white"/>
</g>
<path fill-rule="evenodd" clip-rule="evenodd" d="M186.883 50.8305L189.946 60.7044H183.822L186.883 50.8305V50.8305ZM172.796 71.2348H180.833L182.326 66.6H191.439L192.93 71.2348H200.974L191.437 44.4348H182.326L172.798 71.2348H172.796Z" fill="white"/>
<mask id="mask1_2_69" style="mask-type:alpha" maskUnits="userSpaceOnUse" x="201" y="43" width="30" height="29">
<path d="M201.924 43.6696H230.067V72H201.924V43.6696Z" fill="white"/>
</mask>
<g mask="url(#mask1_2_69)">
<path fill-rule="evenodd" clip-rule="evenodd" d="M215.591 55.6913V61.5869H222.559C221.946 64.3435 219.609 66.1022 216.585 66.1022C212.754 66.1022 209.422 63.2326 209.422 57.8739C209.424 52.5935 212.793 50.1043 216.317 50.1043C218.883 50.1043 220.95 51.3304 221.946 53.2826L228.567 50.1783C227.611 48.4217 224.511 43.6696 216.124 43.6696C207.55 43.6696 201.924 49.263 201.924 58.0283C201.924 67.0587 208.506 72 216.661 72C228.724 72 230.522 62.0065 229.987 55.6913H215.589H215.591Z" fill="white"/>
</g>
<path fill-rule="evenodd" clip-rule="evenodd" d="M241.202 56.4935V50.3305H243.039C245.72 50.3305 246.561 51.9 246.561 53.3957C246.561 54.9631 245.72 56.4935 243.039 56.4935H241.202ZM233.696 71.2326H241.202V62.3913L246.865 71.2348H255.939L248.439 60.5174C250.961 59.6326 254.063 57.5305 254.063 52.4761C254.063 51.2544 253.759 44.4348 244.802 44.4348H233.696V71.2348V71.2326Z" fill="white"/>
<path fill-rule="evenodd" clip-rule="evenodd" d="M2 54.3827C2 54.3827 11.6609 54.4849 16.0435 55.287C29.9761 57.8305 30.5065 71.1044 30.5065 71.1044C30.5065 71.1044 28.2391 71.2349 22.25 71.2349C8.28261 71.2349 2 54.3827 2 54.3827Z" fill="white"/>
<path fill-rule="evenodd" clip-rule="evenodd" d="M60.9609 54.3827C60.9609 54.3827 51.3044 54.4849 46.9218 55.287C32.9913 57.8305 32.4565 71.1044 32.4565 71.1044C32.4565 71.1044 34.7196 71.2349 40.7131 71.2349C54.6783 71.2349 60.9609 54.3827 60.9609 54.3827Z" fill="white"/>
<path fill-rule="evenodd" clip-rule="evenodd" d="M31.5065 47.1652C32.1783 47.1517 32.8461 47.2724 33.4707 47.5203C34.0953 47.7682 34.6642 48.1382 35.144 48.6087C35.6237 49.0793 36.0048 49.6408 36.2647 50.2605C36.5247 50.8801 36.6584 51.5455 36.658 52.2174C36.6575 52.8894 36.523 53.5546 36.2622 54.1739C36.0014 54.7932 35.6197 55.3543 35.1393 55.8242C34.6589 56.2941 34.0896 56.6634 33.4647 56.9105C32.8398 57.1575 32.1718 57.2774 31.5 57.263C30.1791 57.2348 28.9218 56.69 27.9979 55.7455C27.0741 54.8011 26.5571 53.5321 26.558 52.2109C26.5588 50.8897 27.0774 49.6215 28.0025 48.6782C28.9276 47.7349 30.1856 47.1917 31.5065 47.1652" fill="white"/>
<path fill-rule="evenodd" clip-rule="evenodd" d="M24.5543 43.5109C25.061 43.938 25.4786 44.4609 25.7832 45.0495C26.0877 45.6382 26.2732 46.2811 26.3292 46.9415C26.3851 47.6019 26.3103 48.2668 26.1091 48.8983C25.9079 49.5298 25.5841 50.1154 25.1564 50.6217C24.2927 51.6441 23.0585 52.2819 21.7249 52.3953C20.3913 52.5086 19.0673 52.0881 18.0434 51.2261C17.0211 50.3612 16.3835 49.1262 16.2706 47.7919C16.1577 46.4576 16.5787 45.133 17.4412 44.1087C17.8687 43.6019 18.3919 43.1844 18.9809 42.8801C19.5699 42.5757 20.2131 42.3905 20.8738 42.335C21.5345 42.2795 22.1996 42.3547 22.8311 42.5565C23.4626 42.7583 24.0482 43.0826 24.5543 43.5109Z" fill="white"/>
<path fill-rule="evenodd" clip-rule="evenodd" d="M23.6152 36.2326C23.567 37.5701 22.9897 38.8337 22.0101 39.7457C21.0305 40.6576 19.7288 41.1432 18.3913 41.0956C17.7291 41.0726 17.078 40.9192 16.4752 40.6442C15.8724 40.3692 15.3298 39.9779 14.8785 39.4929C14.4272 39.0078 14.076 38.4385 13.845 37.8175C13.614 37.1965 13.5079 36.536 13.5326 35.8739C13.5556 35.2112 13.7089 34.5596 13.9838 33.9563C14.2587 33.3529 14.6498 32.8096 15.1347 32.3574C15.6196 31.9052 16.1888 31.5529 16.8099 31.3208C17.431 31.0886 18.0917 30.9811 18.7543 31.0043C19.4168 31.0284 20.068 31.1828 20.6708 31.4586C21.2736 31.7344 21.8162 32.1262 22.2676 32.6117C22.719 33.0972 23.0703 33.6668 23.3015 34.2881C23.5327 34.9094 23.6393 35.5701 23.6152 36.2326" fill="white"/>
<path fill-rule="evenodd" clip-rule="evenodd" d="M34.8979 31.7283C34.2816 31.4584 33.7255 31.0679 33.2621 30.58C32.7988 30.0921 32.4377 29.5165 32.1999 28.8871C31.9621 28.2576 31.8526 27.587 31.8776 26.9146C31.9027 26.2422 32.0618 25.5816 32.3458 24.9716C32.6297 24.3616 33.0327 23.8145 33.531 23.3624C34.0293 22.9103 34.613 22.5624 35.2477 22.339C35.8824 22.1156 36.5553 22.0213 37.227 22.0617C37.8986 22.1021 38.5554 22.2762 39.1588 22.574C40.3319 23.1638 41.2291 24.1872 41.6603 25.4274C42.0915 26.6676 42.0227 28.0269 41.4685 29.2172C40.9144 30.4075 39.9184 31.3352 38.6918 31.8036C37.4652 32.2719 36.1044 32.2442 34.8979 31.7261" fill="white"/>
<mask id="mask2_2_69" style="mask-type:alpha" maskUnits="userSpaceOnUse" x="20" y="22" width="11" height="11">
<path d="M20.6652 22H30.7609V32.0957H20.6652V22Z" fill="white"/>
</mask>
<g mask="url(#mask2_2_69)">
<path fill-rule="evenodd" clip-rule="evenodd" d="M28.4635 31.2786C27.9084 31.64 27.2874 31.8885 26.6362 32.0099C25.9849 32.1312 25.3161 32.123 24.668 31.9857C24.0199 31.8484 23.4053 31.5848 22.8591 31.2098C22.313 30.8348 21.8462 30.3558 21.4853 29.8003C20.9408 28.9638 20.6567 27.9846 20.6688 26.9866C20.6809 25.9886 20.9887 25.0166 21.5533 24.1936C22.1179 23.3705 22.914 22.7334 23.8407 22.3629C24.7675 21.9923 25.7833 21.9049 26.7597 22.1117C27.7361 22.3186 28.6293 22.8104 29.3261 23.5249C30.023 24.2394 30.4923 25.1445 30.6747 26.1258C30.8571 27.1071 30.7444 28.1204 30.3508 29.0376C29.9572 29.9548 29.3004 30.7347 28.4635 31.2786" fill="white"/>
</g>
<path fill-rule="evenodd" clip-rule="evenodd" d="M39.6521 37.9782C39.089 36.7627 39.0314 35.3734 39.492 34.1155C39.9526 32.8575 40.8938 31.8339 42.1087 31.2695C43.3222 30.7168 44.7051 30.6665 45.9555 31.1296C47.206 31.5927 48.2226 32.5316 48.7834 33.7413C49.3443 34.9511 49.4038 36.3336 48.9492 37.5872C48.4945 38.8408 47.5625 39.8636 46.3565 40.4326C45.1408 40.9921 43.7532 41.0478 42.4966 40.5875C41.24 40.1272 40.2166 39.1884 39.65 37.976" fill="white"/>
<path fill-rule="evenodd" clip-rule="evenodd" d="M37.4348 44.963C37.7358 44.3725 38.1503 43.8472 38.6545 43.417C39.1587 42.9867 39.7428 42.6601 40.3733 42.4558C41.0039 42.2515 41.6685 42.1735 42.3292 42.2262C42.9899 42.2789 43.6338 42.4613 44.2239 42.763C45.1141 43.2167 45.8497 43.9242 46.3377 44.796C46.8256 45.6679 47.044 46.6649 46.9652 47.6609C46.8864 48.6568 46.5139 49.6071 45.8949 50.3913C45.2758 51.1755 44.4381 51.7585 43.4877 52.0665C42.5372 52.3745 41.5168 52.3937 40.5554 52.1215C39.5941 51.8494 38.7351 51.2982 38.0871 50.5378C37.4391 49.7773 37.0313 48.8417 36.9151 47.8494C36.799 46.8571 36.9799 45.8526 37.4348 44.963" fill="white"/>
</svg>
